<svg t="1652410962414" class="icon" viewBox="0 0 1024 1024" version="1.1" xmlns="http://www.w3.org/2000/svg" p-id="1557"
     data-spm-anchor-id="a313x.7781069.0.i2" xmlns:xlink="http://www.w3.org/1999/xlink" width="128" height="128">
    <defs>
        <style type="text/css"></style>
    </defs>
    <path d="M512.194916 397.984616v-0.020463H358.300956v19.839528H664.755669v-19.819065H512.194916z m0 0"
          fill="#434448" p-id="1558"></path>
    <path d="M677.565926 159.713828l-10.555161-12.30992-0.040927-8.44945s7.910232 3.294651 7.910232-7.48561v-53.819452s-2.300117-24.170664-28.199961-41.154487C621.131217 19.755627 597.665527 3.840008 512.194916 0.509545v-0.050136l-0.674277 0.030696-0.664047-0.030696v0.050136C425.40133 3.840008 401.925408 19.755627 376.375492 36.494909c-25.899844 16.984846-28.205076 41.154487-28.205076 41.154487v53.820475c0 10.77003 7.924556 7.48561 7.924556 7.485611l-0.055252 8.449449-10.555161 12.309921v104.369832l11.134283 14.976337s-0.383694 105.490219-0.764318 118.149045c-0.370392 12.660873 18.424465 10.38122 18.424465 10.38122H648.804238s18.804066 2.279653 18.424465-10.38122c-0.378578-12.658826-0.764318-118.149045-0.764318-118.149045l11.134283-14.976337V159.713828h-0.032742z m0 0"
          fill="#DB4123" p-id="1559" data-spm-anchor-id="a313x.7781069.0.i4" class="selected"></path>
    <path d="M684.475485 1009.689756v-82.733595c0-7.150006-4.789522-5.536446-4.789522-5.536446h-4.695389l-162.979831-0.164732-163.93446 0.164732h-4.705621s-4.780313-1.614584-4.780313 5.536446v82.733595s-1.5491 14.289781 14.950757 14.28978h157.315486v0.020464h158.644602c16.499857 0 14.974291-14.310244 14.974291-14.310244z m0 0"
          fill="#221F20" p-id="1560"></path>
    <path d="M664.666652 417.804704H358.47592c-5.741083 0-10.391452 4.970625-10.391451 11.110749v570.715386c0 6.14524 4.650369 11.100518 10.391451 11.100517h306.189709c5.684808 0 10.314713-4.945046 10.314713-11.100517V428.905222c0.010232-6.130916-4.619674-11.100518-10.31369-11.100518z m0 0"
          fill="#2E3C42" p-id="1561"></path>
    <path d="M405.250754 36.070288s-33.669899 20.144437-34.530397 54.678926c-0.860497 34.530397 0 91.215786 1.439619 107.925396 1.439619 16.66459 4.605349 43.745187 4.605349 43.745187s0.284445-118.184856 0.284445-140.154653c0-26.564913 2.585585-37.701242 28.200984-66.194856z m70.505528 47.104299s-40.096515-1.344463-50.650652 15.72633c-10.555161 17.059538-31.269511 47.195362-31.269511 47.195362s21.294495-43.745187 31.464939-53.155406c10.159189-9.376454 34.719686-11.870975 50.455224-9.766286z m0 0"
          fill="#EFA681" p-id="1562"></path>
    <path d="M362.185984 212.274765v138.114424s1.154151 16.505996 13.040473 16.505997c11.898601 0 3.504403-55.630487 4.259513-74.435577 0.739762-18.783603-5.710387-77.12041-5.710387-77.12041l-11.589599-3.064434z m0 0"
          fill="#2E3C42" p-id="1563"></path>
    <path d="M370.379637 175.060558l-12.034684 11.219207s-37.405542 17.845343-38.274225 20.419673c-0.855381 2.595817 0 8.92523 0 8.92523l33.668876-9.780612s5.660251 1.630954 8.435125 6.430709c2.769758 4.80487 11.590623 3.055226 11.590622 3.055226l-3.385714-40.269433z m-17.602849 158.839006h3.43892v27.45099h-3.43892v-27.45099z m0 0"
          fill="#201E1E" p-id="1564"></path>
    <path d="M387.811614 267.13991s-1.995208 127.005721 0 130.070156c1.999301 3.080806 4.685157 6.14524 6.024505 6.530981 1.344463 0.380624-8.250952 1.539891-9.780611-14.580365-1.534775-16.110024 0-141.949316 0-141.949317l3.756106 19.928545z m0 0"
          fill="#EFA681" p-id="1565"></path>
    <path d="M512.194916 425.174695H363.276697c-4.660601 0-8.424893 2.085248-8.424893 4.680041v568.605581c0 2.575353 3.774524 4.674925 8.424893 4.674925h148.919243V425.174695zM339.35569 657.049562v124.115228l8.729802 16.240992V643.22533l-8.729802 13.824232z m0 0"
          fill="#E89C38" p-id="1566"></path>
    <path d="M646.875537 36.505141c-25.579587-16.760769-49.089275-32.694806-134.849446-35.996619v-0.039904l-0.495221 0.020464-0.479873-0.020464v0.039904C425.290826 3.793964 401.781139 19.744372 376.200528 36.505141c-25.899844 16.983823-28.205076 41.159603-28.205076 41.159603v53.815359c0 5.998925 2.459733 7.629879 4.629905 7.924556h1.505103a7.503005 7.503005 0 0 0 1.790571-0.439969v0.439969h0.019441c-0.01944-0.330488-0.01944-0.669162-0.019441-1.030346V84.569186s2.295001-24.173733 28.189729-41.154487c24.829594-16.274757 47.695699-31.769848 127.435458-35.690687 79.734644 3.910607 102.599725 19.404675 127.439551 35.690687 25.899844 16.980753 28.19996 41.154487 28.199961 41.154487v53.805127c0 0.361184 0 0.691672-0.019441 1.030346h0.019441v-0.439969s0.744878 0.305932 1.790571 0.439969h1.494871c2.174265-0.275236 4.629905-1.924608 4.629905-7.924556V77.664744s-2.324673-24.174757-28.22554-41.159603z m0 0"
          fill="#242323" p-id="1567"></path>
    <path d="M617.810987 36.070288s33.659668 20.144437 34.535512 54.678926c0.850265 34.530397 0 91.215786-1.439619 107.925396-1.444735 16.66459-4.620697 43.745187-4.620696 43.745187s-0.27012-118.184856-0.270121-140.154653c-0.001023-26.564913-2.589677-37.701242-28.205076-66.194856z m-70.500413 47.104299s40.1047-1.344463 50.64963 15.72633c10.555161 17.059538 31.270534 47.195362 31.270534 47.195362s-21.295518-43.745187-31.464939-53.155406c-10.174537-9.376454-34.719686-11.870975-50.455225-9.766286z m0 0"
          fill="#EFA681" p-id="1568"></path>
    <path d="M635.250126 152.409321c-6.839982-10.714778-18.003937-17.064654-36.920553-24.159408-31.364667-8.294949-77.694416-8.800401-86.143865-8.818819 0 0-52.846405-0.34072-87.475027 8.818819-18.890014 7.08043-30.079549 13.434399-36.910322 24.159408-6.82975 10.764914-10.279925 16.895829-7.21549 47.215826 3.070574 30.310788 7.21549 67.514763 7.21549 67.514763s7.749592-4.225748 23.095298-5.359435c14.534322-1.100945 92.569458-3.425618 100.61475-3.784756 7.925579 0.348906 86.09066 2.68381 100.635213 3.784756 15.335474 1.133687 23.095298 5.359435 23.095298 5.359435s4.140824-37.193743 7.205258-67.514763c3.064435-30.319997-0.370392-36.450912-7.19605-47.215826z m0 0"
          fill="#202016" p-id="1569"></path>
    <path d="M660.880873 212.274765v138.114424s-1.151081 16.505996-13.04559 16.505997-3.489056-55.630487-4.244165-74.435577c-0.739762-18.783603 5.695039-77.12041 5.69504-77.12041l11.594715-3.064434z m0 0"
          fill="#2E3C42" p-id="1570"></path>
    <path d="M652.695405 175.060558l12.025476 11.219207s37.414751 17.845343 38.284457 20.419673c0.850265 2.595817 0 8.92523 0 8.92523l-33.680132-9.780612s-5.665367 1.630954-8.435124 6.430709c-2.774874 4.789522-11.589599 3.055226-11.5896 3.055226l3.394923-40.269433z m14.155744 158.839006h3.423572v27.45099h-3.423572v-27.45099z m0 0"
          fill="#201E1E" p-id="1571"></path>
    <path d="M635.250126 267.13991s2.000324 127.005721 0 130.070156c-2.004416 3.080806-4.690273 6.14524-6.034736 6.530981-1.330139 0.380624 8.255044 1.539891 9.780611-14.580365 1.539891-16.110024 0-141.949316 0-141.949317l-3.745875 19.928545z m0 0"
          fill="#EFA681" p-id="1572"></path>
    <path d="M623.085498 146.105488c-6.954578-4.946069-24.984095-12.4767-52.94463-15.355938-13.335151-2.295001-57.549979-3.059319-57.54998-3.059319h-2.105711s-44.224037 0.764318-57.548956 3.059319c-27.960535 2.890493-45.990052 10.409869-52.945653 15.355938-6.975042 4.919466-19.764836 14.559901-17.469836 40.849578 2.300117 26.269213 7.669784 76.744902 7.669784 76.744901s14.779886-5.955951 35.494236-5.955951c19.685027 0 79.835939-3.299767 85.835887-3.614907 5.885351 0.315141 66.161091 3.614907 85.85942 3.614907 20.705141 0 35.479911 5.955951 35.479911 5.955951s5.369667-50.475688 7.674899-76.744901c2.30114-26.289677-10.488654-35.931135-17.449371-40.849578z m0 0"
          fill="#3D4852" p-id="1573"></path>
    <path d="M510.864778 425.174695h148.920266c4.650369 0 8.414661 2.085248 8.414661 4.680041v568.605581c0 2.575353-3.774524 4.674925-8.414661 4.674925H510.864778V425.174695z m172.845365 231.874867v124.115228l-8.719569 16.240992V643.22533l8.719569 13.824232z m0 0"
          fill="#E89C38" p-id="1574" data-spm-anchor-id="a313x.7781069.0.i3" class=""></path>
    <path d="M380.55622 985.678708c0 2.850589-1.93484 5.175262-4.324997 5.175263-2.390157 0-4.319881-2.324673-4.31988-5.175263V442.864514c0-2.87003 1.929724-5.184471 4.31988-5.184471 2.390157 0 4.324997 2.314441 4.324997 5.184471v542.814194z m22.044489 0c0 2.850589-1.930747 5.175262-4.319881 5.175263s-4.324997-2.324673-4.324997-5.175263V442.864514c0-2.87003 1.935863-5.184471 4.324997-5.184471s4.319881 2.314441 4.319881 5.184471v542.814194z m23.94454 0c0 2.850589-1.928701 5.175262-4.319881 5.175263-2.379925 0-4.324997-2.324673-4.324996-5.175263V442.864514c0-2.87003 1.946095-5.184471 4.324996-5.184471 2.39118 0 4.319881 2.314441 4.319881 5.184471v542.814194z m21.654655 0c0 2.850589-1.944049 5.175262-4.324996 5.175263-2.390157 0-4.319881-2.324673-4.319881-5.175263V442.864514c0-2.87003 1.930747-5.184471 4.319881-5.184471 2.380948 0 4.324997 2.314441 4.324996 5.184471v542.814194z m25.996024 0c0 2.850589-1.929724 5.175262-4.319881 5.175263-2.390157 0-4.324997-2.324673-4.324997-5.175263V442.864514c0-2.87003 1.935863-5.184471 4.324997-5.184471 2.390157 0 4.319881 2.314441 4.319881 5.184471v542.814194z m23.310166-0.128921c0 2.87003-1.939956 5.185494-4.319881 5.185494-2.390157 0-4.319881-2.315464-4.31988-5.185494V442.764242c0-2.87003 1.929724-5.194703 4.31988-5.194702 2.379925 0 4.319881 2.324673 4.319881 5.194702v542.785545z m144.994311 0.128921c0 2.850589 1.939956 5.175262 4.31988 5.175263 2.390157 0 4.324997-2.324673 4.324997-5.175263V442.864514c0-2.87003-1.93484-5.184471-4.324997-5.184471s-4.319881 2.314441-4.31988 5.184471v542.814194z m-28.364693 0c0 2.850589 1.940979 5.175262 4.31988 5.175263 2.379925 0 4.309649-2.324673 4.309649-5.175263V442.864514c0-2.87003-1.929724-5.184471-4.309649-5.184471-2.390157 0-4.319881 2.314441-4.31988 5.184471v542.814194z m-24.230009 0c0 2.850589 1.929724 5.175262 4.319881 5.175263 2.39118 0 4.314765-2.324673 4.314765-5.175263V442.864514c0-2.87003-1.923585-5.184471-4.314765-5.184471-2.390157 0-4.319881 2.314441-4.319881 5.184471v542.814194z m-25.975559 0c0 2.850589 1.929724 5.175262 4.310672 5.175263 2.390157 0 4.319881-2.324673 4.319881-5.175263V442.864514c0-2.87003-1.939956-5.184471-4.319881-5.184471-2.380948 0-4.310672 2.314441-4.310672 5.184471v542.814194z m-28.004533-0.128921c0 2.87003 1.930747 5.185494 4.310672 5.185494 2.390157 0 4.319881-2.315464 4.319881-5.185494V442.764242c0-2.890493-1.939956-5.194703-4.319881-5.194702-2.380948 0-4.310672 2.304209-4.310672 5.194702v542.785545z m-23.715347 0c0 2.87003 1.930747 5.185494 4.319881 5.185494 2.390157 0 4.319881-2.315464 4.319881-5.185494V442.764242c0-2.890493-1.929724-5.194703-4.319881-5.194702-2.390157 0-4.319881 2.304209-4.319881 5.194702v542.785545z m0 0"
          fill="#2c2c2c" p-id="1575" data-spm-anchor-id="a313x.7781069.0.i0" class=""></path>
    <path d="M512.010743 1003.118871h0.360161v7.584859h-0.360161z" fill="#CFCECE" p-id="1576"></path>
    <path d="M630.255968 152.629306a48.361791 48.361791 0 0 0-7.760847-6.523818c-6.954578-4.946069-24.984095-12.4767-52.94463-15.355938-13.335151-2.295001-57.549979-3.059319-57.549979-3.059319h-2.104689s-44.22506 0.764318-57.549979 3.059319c-27.970767 2.890493-46.000284 10.409869-52.955885 15.355938-6.949462 4.919466-19.764836 14.559901-17.459603 40.849578 1.164383 13.359707 3.129918 32.95981 4.77929 48.994119 127.376114-78.530357 207.976371-85.63432 243.546322-83.319879z m0 0"
          fill="#303F43" p-id="1577"></path>
</svg>
